<svg xmlns="http://www.w3.org/2000/svg" xmlns:xlink="http://www.w3.org/1999/xlink" width="500" zoomAndPan="magnify" viewBox="0 0 375 374.999991" height="500" preserveAspectRatio="xMidYMid meet" version="1.0"><defs><clipPath id="c652427f1f"><path d="M 80 53 L 310 53 L 310 341 L 80 341 Z M 80 53 " clip-rule="nonzero"/></clipPath><clipPath id="468cf7a6f7"><path d="M 69.804688 56.574219 L 310.4375 49.09375 L 319.292969 333.957031 L 78.65625 341.4375 Z M 69.804688 56.574219 " clip-rule="nonzero"/></clipPath><clipPath id="d0812ad8d6"><path d="M 69.804688 56.574219 L 310.4375 49.09375 L 319.292969 333.957031 L 78.65625 341.4375 Z M 69.804688 56.574219 " clip-rule="nonzero"/></clipPath></defs><g clip-path="url(#c652427f1f)"><g clip-path="url(#468cf7a6f7)"><g clip-path="url(#d0812ad8d6)"><path fill="#000000" d="M 195.304688 108.941406 C 195.304688 108.941406 204.277344 104.296875 205.984375 102.984375 C 207.6875 101.675781 213.492188 99.261719 216.203125 98.046875 C 218.914062 96.832031 232.808594 89.542969 235.140625 88.46875 C 237.46875 87.394531 245.582031 82.394531 246.175781 81.628906 C 246.175781 81.628906 245.984375 75.523438 247.894531 72.589844 C 247.894531 72.589844 247.75 63.707031 251.332031 66.601562 C 251.332031 66.601562 252.273438 68.832031 251.113281 71.976562 L 251.15625 73.359375 L 252.269531 72.839844 C 252.269531 72.839844 253.996094 68.035156 254.992188 67.875 C 254.992188 67.875 254.625 64.394531 255.121094 63.761719 C 255.121094 63.761719 253.691406 61.546875 253.773438 60.925781 C 253.773438 60.925781 248.457031 58.472656 251.378906 56.636719 C 251.378906 56.636719 254.566406 58.410156 254.582031 58.898438 C 254.582031 58.898438 254.550781 53.660156 256.675781 57.703125 C 256.675781 57.703125 257.984375 55.171875 258.480469 59.523438 C 258.480469 59.523438 259.375 64.375 259.144531 65.253906 C 259.144531 65.253906 259.675781 69.859375 259.578125 70.863281 C 259.480469 71.871094 258.460938 75.394531 257.414062 77.300781 C 256.34375 79.207031 252.480469 87.082031 252.480469 87.082031 C 250.917969 88.878906 248.558594 89.824219 246.976562 90.875 C 245.390625 91.925781 236.808594 97.558594 234.378906 99.507812 C 231.949219 101.460938 216.699219 109.917969 213.476562 110.277344 C 213.476562 110.277344 205.296875 116.410156 202.222656 118.382812 C 199.152344 120.351562 186.503906 131.480469 185.035156 132.167969 C 183.566406 132.828125 184.65625 132.304688 184.65625 132.304688 C 184.65625 132.304688 180.378906 139.320312 172.703125 141.792969 C 172.703125 141.792969 164.863281 150.664062 164.25 151.558594 C 163.660156 152.449219 162.457031 154.234375 161.988281 154.761719 C 161.515625 155.289062 161.539062 156.035156 160.652344 156.421875 C 159.792969 156.832031 160.488281 159.429688 160.488281 159.429688 C 160.488281 159.429688 161.230469 163.542969 160.660156 164.917969 C 160.660156 164.917969 170.820312 162.214844 181.960938 167.003906 C 181.960938 167.003906 213.632812 149.148438 217.585938 147.539062 C 221.542969 145.925781 228.074219 138.710938 229.738281 136.167969 C 231.40625 133.625 242.769531 117.53125 248.054688 114.105469 C 253.316406 110.683594 271.039062 97.523438 272.480469 95.988281 C 273.921875 94.453125 276.605469 91.625 276.605469 91.625 C 276.605469 91.625 277.796875 82.085938 284.117188 79.628906 C 290.410156 77.171875 291.742188 72.148438 292.949219 70.496094 C 294.15625 68.839844 299.90625 61.394531 299.90625 61.394531 C 299.90625 61.394531 300.953125 58.742188 304.023438 60.878906 C 304.023438 60.878906 310.726562 63.292969 309.238281 67.472656 C 307.75 71.652344 308.964844 66.96875 308.964844 66.96875 C 308.964844 66.96875 303.519531 81.003906 301.707031 82.933594 C 299.890625 84.863281 298.949219 86.769531 297.742188 88.425781 C 296.535156 90.078125 289.21875 100.066406 283.789062 102.109375 C 283.789062 102.109375 273.6875 110.921875 271.398438 113.253906 C 269.109375 115.582031 258.578125 127.15625 255.355469 131.625 C 252.128906 136.089844 245.78125 145.042969 244.117188 147.585938 C 242.449219 150.128906 239.242188 155.980469 236.792969 157.316406 C 236.792969 157.316406 197.929688 197.503906 193.082031 198.527344 C 188.234375 199.550781 193.09375 198.886719 193.09375 198.886719 L 193.085938 202.765625 C 193.085938 202.765625 194.597656 206.722656 191.941406 210.554688 C 191.941406 210.554688 162.71875 255.195312 156.003906 260.539062 C 156.003906 260.539062 152.882812 265 150.949219 270.554688 C 150.949219 270.554688 145.84375 287.199219 136.558594 294.242188 C 136.558594 294.242188 116.929688 310.335938 114.015625 312.429688 C 114.015625 312.429688 108.972656 315.464844 109.882812 319.929688 C 109.882812 319.929688 111.597656 328.015625 105.003906 328.222656 C 105.003906 328.222656 98.640625 328.417969 97.472656 332.078125 C 97.472656 332.078125 89.449219 340.824219 84.984375 340.117188 C 84.984375 340.117188 78.582031 339.03125 81.003906 335.128906 C 81.003906 335.128906 90.351562 314.449219 100.746094 307.757812 C 100.746094 307.757812 126.144531 277.234375 128.15625 273.34375 C 128.15625 273.34375 132.449219 267.691406 132.890625 261.308594 C 132.890625 261.308594 143.515625 233.785156 146.277344 226.894531 C 146.277344 226.894531 153.488281 212.648438 155.570312 211.09375 C 155.570312 211.09375 149.496094 207.25 149.003906 204.726562 C 149.003906 204.726562 121.183594 177.960938 125.023438 164.257812 C 125.023438 164.257812 126.648438 148.054688 126.949219 144.449219 C 127.246094 140.820312 131.480469 126.667969 144.183594 124.78125 C 144.183594 124.78125 151.082031 121.179688 152.285156 118.574219 C 153.488281 115.992188 156.160156 106.125 150.042969 101 C 150.042969 101 145.710938 97.953125 151.597656 96.484375 C 151.597656 96.484375 151.835938 93.394531 155.304688 94.316406 L 154.710938 93.308594 L 155.710938 92.453125 C 155.710938 92.453125 155.316406 91.335938 156.6875 90.832031 L 157.773438 90.234375 C 157.773438 90.234375 155.503906 85.835938 159.136719 86.183594 C 159.136719 86.183594 162.515625 87.464844 165.167969 86.101562 C 165.167969 86.101562 168.332031 83.023438 170.34375 82.394531 C 172.378906 81.765625 176.890625 80.804688 179.886719 81.355469 C 179.886719 81.355469 197.140625 71.34375 203.167969 70.308594 C 203.167969 70.308594 215.140625 66.390625 217.195312 63.914062 C 217.195312 63.914062 222.609375 55.476562 225.921875 54.628906 C 225.921875 54.628906 229.554688 51.71875 230.375 54.207031 C 230.375 54.207031 231.074219 55.957031 230.445312 56.441406 C 230.445312 56.441406 233.917969 57.4375 232.84375 59.242188 L 231.464844 59.464844 C 231.464844 59.464844 233.425781 59.789062 233.558594 60.785156 C 233.558594 60.785156 239.546875 55.953125 240.359375 54.898438 C 240.359375 54.898438 244.328125 51.15625 242.988281 55.921875 C 242.988281 55.921875 236.144531 63.015625 234.859375 63.800781 C 234.859375 63.800781 229.226562 70.859375 224.121094 71.015625 C 224.121094 71.015625 221.445312 71.664062 220.726562 72.613281 C 220.726562 72.613281 216.265625 75.265625 214.40625 75.785156 C 214.40625 75.785156 203.121094 83.585938 200.960938 85.960938 C 200.960938 85.960938 192.414062 91.980469 191.472656 92.214844 C 191.472656 92.214844 196.796875 99.035156 193.5625 105.734375 C 193.5625 105.734375 195.324219 107.914062 195.304688 108.941406 Z M 195.304688 108.941406 " fill-opacity="1" fill-rule="nonzero"/></g></g></g></svg>