<?xml version="1.0" encoding="UTF-8"?>
<svg id="Layer_2" data-name="Layer 2" xmlns="http://www.w3.org/2000/svg" viewBox="0 0 279.05 68.57">
  <defs>
    <style>
      .cls-1 {
        fill: #231f20;
      }
    </style>
  </defs>
  <g id="Layer_2-2" data-name="Layer 2">
    <g>
      <path class="cls-1" d="M18.26,25.21c1.13,0,1.83-.65,1.83-1.73s-2.19-1.05-2.19-1.05h-7.83c-5.56,0-10.08-3.8-10.08-10.51C0,4.25,5.27,1.44,10.6,1.44h19.67v9H13.33c-1.26-.62-2.15-.15-2.15,1.01s2.15,1.99,2.15,1.99h8.08c6.35,0,10.57,3.75,10.57,10.43,0,6.31-4.74,10.57-10.91,10.57H1.26v-9h17v-.22Z"/>
      <path class="cls-1" d="M33.26,10.44V1.44h30v9h-10s0,23,0,23h-11V10.44h-9Z"/>
      <path class="cls-1" d="M89.54,1.44c6.68,0,10.72,3.87,10.72,10.46,0,4.38-2.91,7.92-6.82,9.47l7.9,13.06h-11.13l-7.43-13h-5.52v13h-11V1.44s23.28,0,23.28,0ZM77.26,10.44v3h9.66c1.03-.22,1.77-.92,1.77-1.99,0-1.17-.75-1.68-1.77-1.01h-9.66Z"/>
      <path class="cls-1" d="M132.26,1.44v9h-18v3h18v9h-18v3h18v9h-29V1.44h29Z"/>
      <path class="cls-1" d="M147.07,1.44l12.86,17h.33V1.44h11v33h-10.6l-13.02-17h-.37v17h-11V1.44h10.82,0Z"/>
      <path class="cls-1" d="M174.62,17.55c0-9.87,7.73-17.55,18.04-17.55s16.82,6.51,17.35,14.44h-11.43c-.27-1.75-2.6-4.17-6.23-4.17s-6.68,2.6-6.68,6.86,3.18,7.09,6.55,7.09c2.6,0,4.39-.89,5.56-2.78h-5.51v-3h17.79c-.09,8.95-7.09,16.68-17.41,16.68s-18.04-7.64-18.04-17.55h.01Z"/>
      <path class="cls-1" d="M211.26,10.44V1.44h30v9h-10s0,23,0,23h-11V10.44h-9s0,0,0,0Z"/>
      <path class="cls-1" d="M277.26,1.44v32h-11v-12h-13v12h-11V1.44h11v12h13V1.44h11Z"/>
      <path class="cls-1" d="M12.26,59.44h-7v9H1.26v-21h11v3h-7v6h7v3.24-.24Z"/>
      <path class="cls-1" d="M29.26,59.63c0,2.79-.66,4.96-1.98,6.51-1.32,1.54-3.15,2.32-5.49,2.32s-4.17-.76-5.5-2.3c-1.33-1.52-2.01-3.67-2.03-6.43v-3.56c0-2.86.66-5.09,1.99-6.7s3.16-2.41,5.51-2.41,4.14.79,5.47,2.37c1.33,1.57,2.01,3.79,2.03,6.64v3.56ZM25.27,56.04c0-1.99-.29-3.47-.85-4.45s-1.45-1.46-2.64-1.46-2.06.47-2.63,1.41-.86,2.37-.88,4.27v3.93c0,1.93.29,3.36.86,4.27.58.92,1.47,1.37,2.67,1.37s2.02-.45,2.6-1.34c.56-.89.85-2.28.86-4.17v-3.85h.01Z"/>
      <path class="cls-1" d="M38.26,60.44h-2v8h-4v-21h6.73c2.12,0,3.75.55,4.91,1.65,1.16,1.1,1.73,2.66,1.73,4.7,0,2.79-1.01,4.74-3.03,5.86l3.66,8.6v.19h-4.72l-3.28-7.99h0ZM36.26,57.44h2.31c.82,0,1.42-.27,1.83-.81s.61-1.26.61-2.17c0-2.02-.79-3.03-2.37-3.03h-2.38v6.01h0Z"/>
      <path class="cls-1" d="M73.48,38.44c7.37,0,14.4,5.61,14.4,14.78,0,9.86-8.44,15.22-14.74,15.22h-17.88v-30h18.22ZM65.26,46.44v14h5.09c4.16,0,7.26-2.8,7.26-7.26,0-4.79-3.01-6.74-7.59-6.74,0,0-4.75,0-4.75,0Z"/>
      <path class="cls-1" d="M112.62,38.44l8.74,30h-10.5l-.8-3h-10.66l-.8,3h-10.5l8.74-30h15.78,0ZM101.48,57.44h6.5l-2.91-11h-.69s-2.91,11-2.91,11Z"/>
      <path class="cls-1" d="M133.18,37.44l11.78,16h.3v-15h10v30h-9.83l-11.83-15h-.34v15h-10v-31h9.92,0Z"/>
      <path class="cls-1" d="M168.86,38.41c6.33-1.91,12.21.06,16.06,4.02l-6.98,7.07c-1.23-1.43-3.12-2.19-5.18-1.85s-3.85,1.97-4.37,4.04c-.92,3.63,1.84,6.98,5.35,6.98,1.63,0,3.13-.73,4.11-1.89l7.07,7.03c-2.83,2.91-6.81,4.76-11.18,4.76-8.53,0-15.47-6.9-15.47-15.47h0c0-6.67,4.22-12.76,10.59-14.69Z"/>
      <path class="cls-1" d="M214.26,38.44v8h-16v3h16v8h-16v3h16v8h-26v-30h26Z"/>
      <path class="cls-1" d="M239.4,38.44c6.06,0,9.74,3.51,9.74,9.51,0,3.98-2.65,7.2-6.19,8.61l7.18,11.87h-10.91l-6.28-11h-4.67v11h-10v-30h21.15,0ZM228.26,46.44v3h8.8c.89,0,1.54-.61,1.54-1.54,0-1.01-.65-1.46-1.54-1.46,0,0-8.8,0-8.8,0Z"/>
      <path class="cls-1" d="M266.42,60.44c1.28,0,1.89-.58,1.89-1.52s-.62-1.48-1.93-1.48h-7.39c-5.03,0-9.11-3.44-9.11-9.5,0-6.96,4.78-9.5,9.59-9.5h17.8v8h-14.9c-1.13,0-1.92.42-1.92,1.46s.79,1.54,1.92,1.54h7.13c5.75,0,9.56,3.39,9.56,9.44,0,5.71-4.28,9.56-9.86,9.56h-17.93l.13-8h15.04,0Z"/>
    </g>
  </g>
</svg>